# File created by Blade
# Date/Time:  Wed Jan 21 17:10:37 2015
# Frame Rate: 120.000 fps
#------------------------------------------------------
:FULLY-SPECIFIED
:DEGREES
662
root 19.818205 3.389074 -11.605017 -236.745332 4.140868 -185.509768
Spine 67.252718 5.354545 -9.725501
Head -11.914001 -9.007706 4.626178
LeftShoulder 13.878588 -29.057888 -12.642473
LeftArm 17.503703 24.975738 -69.210312
LeftForeArm -70.718924 0.000000 103.676054
LeftHand -3.408084 0.000000 3.889015
LeftHandThumb1 -26.253704 0.000000 33.147579
RightShoulder 6.788257 11.164440 -27.004993
RightArm 70.565276 6.692767 12.294334
RightForeArm 2.410142 0.000000 100.176545
RightHand -15.399206 -0.000000 3.024082
RightHandThumb1 -24.326973 -0.000000 -32.862282
LeftUpLeg -34.092852 32.099983 -2.333471
LeftLeg -1.442110 -0.000000 0.000000
LeftFoot 17.957830 35.252039 -0.943125
LeftToeBase 18.560047 -0.000000 -0.000000
RightUpLeg -113.871323 13.655536 81.300994
RightLeg 119.053727 -0.000000 -0.000000
RightFoot 29.357945 -18.537934 25.293025
RightToeBase 26.482028 -0.000000 -0.000000
663
root 19.820517 3.389833 -11.604534 -236.753120 4.152379 -185.520640
Spine 67.245084 5.394097 -9.717801
Head -11.877831 -9.028912 4.697428
LeftShoulder 13.902991 -29.029725 -12.669783
LeftArm 17.536230 24.939540 -69.168799
LeftForeArm -70.719404 -0.000000 103.683196
LeftHand -3.435773 -0.000000 3.752334
LeftHandThumb1 -26.253704 0.000000 33.147579
RightShoulder 6.821634 11.295014 -27.045412
RightArm 70.405083 6.467939 12.297744
RightForeArm 2.408333 -0.000000 100.297684
RightHand -15.428611 -0.000000 2.533939
RightHandThumb1 -24.326973 -0.000000 -32.862282
LeftUpLeg -34.059675 32.079694 -2.294389
LeftLeg -1.454730 -0.000000 0.000000
LeftFoot 17.959305 35.267037 -0.963675
LeftToeBase 18.543017 -0.000000 -0.000000
RightUpLeg -113.812709 13.645229 81.325735
RightLeg 118.966991 -0.000000 -0.000000
RightFoot 28.520966 -17.859362 26.065599
RightToeBase 27.056131 -0.000000 -0.000000
664
root 19.819872 3.391512 -11.604837 -236.765048 4.136759 -185.544662
Spine 67.251269 5.423683 -9.745779
Head -11.864582 -9.039040 4.748910
LeftShoulder 13.907461 -29.052150 -12.699978
LeftArm 17.548222 24.900638 -69.146838
LeftForeArm -70.674192 -0.000000 103.672174
LeftHand -3.509899 -0.000000 3.687159
LeftHandThumb1 -26.253704 0.000000 33.147579
RightShoulder 6.821488 11.311348 -27.045204
RightArm 70.351556 6.397097 12.304353
RightForeArm 2.265467 -0.000000 100.403133
RightHand -15.413837 -0.000000 2.118100
RightHandThumb1 -24.326973 -0.000000 -32.862282
LeftUpLeg -34.007687 32.036316 -2.272571
LeftLeg -1.476036 -0.000000 0.000000
LeftFoot 17.971827 35.290098 -0.971658
LeftToeBase 18.479587 -0.000000 -0.000000
RightUpLeg -113.768722 13.632239 81.303910
RightLeg 118.893693 -0.000000 -0.000000
RightFoot 27.615200 -17.257632 26.976726
RightToeBase 27.263018 -0.000000 -0.000000
665
root 19.820417 3.390757 -11.605179 -236.761783 4.135658 -185.558524
Spine 67.235053 5.444930 -9.764196
Head -11.840417 -9.029417 4.788382
LeftShoulder 13.908931 -29.092563 -12.717868
LeftArm 17.533237 24.886072 -69.142690
LeftForeArm -70.662270 0.000000 103.643039
LeftHand -3.549180 -0.000000 3.637617
LeftHandThumb1 -26.253704 0.000000 33.147579
RightShoulder 6.830711 11.290267 -27.026265
RightArm 70.299767 6.377380 12.325774
RightForeArm 1.871770 -0.000000 100.593282
RightHand -15.435153 -0.000000 1.860951
RightHandThumb1 -24.326973 -0.000000 -32.862282
LeftUpLeg -33.987812 31.999294 -2.253110
LeftLeg -1.492580 -0.000000 0.000000
LeftFoot 17.993688 35.305413 -0.919301
LeftToeBase 18.478602 -0.000000 -0.000000
RightUpLeg -113.726903 13.627671 81.302210
RightLeg 118.800394 -0.000000 -0.000000
RightFoot 26.791687 -16.778357 27.994305
RightToeBase 27.352744 -0.000000 -0.000000
